<?xml version="1.0" encoding="utf-8" ?><svg xmlns="http://www.w3.org/2000/svg" xmlns:xlink="http://www.w3.org/1999/xlink" width="390" height="368" viewBox="0 0 390 368"><path d="M85.1688 82.4765C84.2833 81.8329 84.4376 82.1395 84.1484 81.2509C84.9253 77.6426 93.9573 70.4204 97.2966 68.6878C104.568 64.9152 111.954 59.7056 119.489 56.5011C123.109 54.9615 127.553 54.3621 131.311 53.1162C142.211 49.6782 153.141 47.0209 164.172 44.129L185.121 38.4557C190.334 37.0054 198.065 34.0898 203.552 34.4615C204.946 34.6354 206.113 36.7225 206.733 37.7975C218.457 58.1369 231.021 78.6685 236.194 101.878C238.471 112.096 239.54 128.197 237.46 138.496C235.767 146.875 232.719 155.829 228.383 163.189C227.422 165.386 225.773 167.819 223.157 168.01C222.216 167.562 222.187 167.303 222.278 166.288C221.991 161.447 222.139 156.78 221.765 151.846C219.833 130.293 201.551 109.71 183.089 100.137C176.923 96.9394 170.38 94.4581 163.805 92.2858C162.704 92.0365 161.503 91.6793 160.41 91.3624C152.935 89.1959 145.365 88.1032 137.664 87.1167C135.678 86.8391 132.975 86.7302 131.078 86.3247C124.977 85.8775 119.521 85.7889 113.475 84.7735C109.971 84.6804 104.153 83.9902 100.397 83.7203L97.8804 83.6917C93.8247 83.649 88.8992 83.8528 85.1688 82.4765Z"/><path fill="#ACA7AA" d="M142.269 86.4906C149.194 87.3582 157.843 88.4298 163.805 92.2858C162.704 92.0365 161.503 91.6793 160.41 91.3624C152.935 89.1959 145.365 88.1032 137.664 87.1167C139.39 86.4669 140.465 86.5475 142.269 86.4906Z"/><path fill="#DAD9DA" d="M103.89 82.478C107.616 82.1724 112.704 82.3823 115.833 84.5436L113.475 84.7735C109.971 84.6804 104.153 83.9902 100.397 83.7203C101.569 83.3281 102.733 82.9139 103.89 82.478Z"/><path fill="#ACA7AA" d="M221.765 151.846L221.842 152.129C222.031 152.811 222.097 153.221 222.627 153.685C224.544 155.362 222.804 165.666 224.735 166.463C223.603 166.884 223.686 166.668 222.278 166.288C221.991 161.447 222.139 156.78 221.765 151.846Z"/><path fill="#ACA7AA" d="M115.833 84.5436C120.235 84.265 125.013 84.3343 129.384 84.9517C130.101 85.4608 130.454 85.7105 131.078 86.3247C124.977 85.8775 119.521 85.7889 113.475 84.7735L115.833 84.5436Z"/><path fill="#DAD9DA" d="M129.384 84.9517C132.073 84.9748 139.638 85.8605 142.269 86.4906C140.465 86.5475 139.39 86.4669 137.664 87.1167C135.678 86.8391 132.975 86.7302 131.078 86.3247C130.454 85.7105 130.101 85.4608 129.384 84.9517Z"/><path fill="#4E4B4E" d="M85.1688 82.4765C89.7846 82.45 94.4005 82.4662 99.016 82.5251L98.805 83.0707L97.757 83.3046C97.8529 83.6803 97.8037 83.5957 97.8804 83.6917C93.8247 83.649 88.8992 83.8528 85.1688 82.4765Z"/><path fill="#4E4B4E" d="M224.735 166.463C226.166 165.424 227.133 164.42 228.383 163.189C227.422 165.386 225.773 167.819 223.157 168.01C222.216 167.562 222.187 167.303 222.278 166.288C223.686 166.668 223.603 166.884 224.735 166.463Z"/><path fill="#ACA7AA" d="M99.016 82.5251C100.692 82.4399 102.218 82.4587 103.89 82.478C102.733 82.9139 101.569 83.3281 100.397 83.7203L97.8804 83.6917C97.8037 83.5957 97.8529 83.6803 97.757 83.3046L98.805 83.0707L99.016 82.5251Z"/><path d="M263.821 113.093C262.68 105.333 259.858 97.6651 257.346 90.2601C256.822 88.7157 255.698 87.0726 255.004 85.5762C250.407 75.6768 245.796 65.8322 240.452 56.3C238.762 53.2851 237.038 50.2895 235.28 47.3139C234.034 45.2526 229.439 38.4924 230.44 36.4705C231.525 35.8558 234.141 36.4698 235.266 36.857C244.393 39.9985 256.147 44.8651 263.81 51.0347C278.744 63.0578 290.722 79.3502 304.932 92.3259C307.553 94.7194 309.798 97.997 312.383 100.479C316.912 104.873 321.567 109.229 326.005 113.726C329.103 116.865 332.87 118.937 335.059 122.625C332.788 129.199 328.97 133.887 325.399 139.583C323.143 143.18 321.613 147.882 318.871 151.405C302.533 176.871 279.654 200.078 247.883 202.966C241.228 203.571 237.907 204.45 230.932 203.247C234.953 200.197 240.552 197.092 244.251 193.815C252.052 186.904 259.218 175.475 262.615 165.625C264.465 160.26 265.93 152.377 266.71 146.805C267.092 144.084 266.925 138.829 266.989 135.791C266.822 135.056 266.789 133.897 266.741 133.11C266.323 126.268 265.317 119.785 263.821 113.093Z"/><path fill="#868A88" d="M263.821 113.093C266.621 116.951 268.751 131.177 266.989 135.791C266.822 135.056 266.789 133.897 266.741 133.11C266.323 126.268 265.317 119.785 263.821 113.093Z"/><path d="M48.3053 165.663C48.8197 163.716 50.5221 158.236 51.4676 156.481C55.8195 148.405 57.3445 140.251 59.8355 131.492C61.4937 125.662 63.9227 120.575 65.1959 114.357C65.743 111.685 67.554 103.814 70.0331 101.685C73.9394 100.338 87.8343 102.519 92.084 102.943C99.2286 103.655 105.301 103.7 111.886 104.759C121.778 106.35 130.94 108.645 140.586 111.037C149.896 113.482 155.666 116.859 163.437 122.058C175.043 129.824 183.163 138.413 189.998 150.63C190.69 152.02 192.235 154.147 190.53 155.134C188.297 155.173 183.531 151.976 181.427 150.73C174.907 147.397 171.181 146.162 163.824 145.402C152.175 144.199 140.609 144.846 129.425 148.57C115.275 153.206 101.826 161.146 90.8037 171.169C86.8432 174.77 83.1747 179.023 79.6195 183.015C72.2615 191.347 65.4636 200.157 59.2703 209.387C55.6177 214.845 52.267 221.129 48.852 226.213C47.6941 229.21 45.6465 233.068 42.6921 234.537C41.7035 234.043 41.6357 233.564 41.4388 232.551C40.9552 228.857 41.371 225.216 41.0092 221.81C39.4196 206.842 40.4773 192.511 44.5729 178.027C45.6444 174.237 46.7786 169.343 48.3053 165.663Z"/><path fill="white" d="M41.4388 232.551C40.9552 228.857 41.371 225.216 41.0092 221.81C39.4196 206.842 40.4773 192.511 44.5729 178.027C45.6444 174.237 46.7786 169.343 48.3053 165.663C46.7657 175.718 42.8957 185.788 42.0157 196.031C41.1762 205.803 42.023 215.573 41.4614 225.364C41.3235 227.685 41.6163 230.247 41.4388 232.551Z"/><path fill="#DAD9DA" d="M181.427 150.73C181.526 150.692 182.273 150.434 182.296 150.436C183.633 150.554 187.933 151.889 188.99 152.482C189.18 153.115 189.193 153.288 189.616 153.817L190.077 153.586C190.253 152.75 189.872 152.355 189.463 151.423L189.998 150.63C190.69 152.02 192.235 154.147 190.53 155.134C188.297 155.173 183.531 151.976 181.427 150.73Z"/><path fill="white" d="M42.6921 234.537C43.208 232.548 47.2653 228.225 48.852 226.213C47.6941 229.21 45.6465 233.068 42.6921 234.537Z"/><path d="M163.892 215.218L164.592 215.05C165.939 216.444 165.475 222.746 165.608 224.996C165.725 226.979 166.007 229.685 166.004 231.637C167.027 244.274 175.944 259.235 185.551 267.501C196.215 276.676 208.742 283.832 222.096 288.356C227.399 290.153 233.516 291.063 238.958 292.444C248.889 294.748 258.301 296.19 268.407 297.354C271.595 297.722 274.981 297.719 278.202 298C281.338 298.07 284.493 298.305 287.643 298.406C293.085 298.579 300.929 298.58 306.302 299.459C307.187 299.72 307.025 299.527 307.477 300.134C307.545 301.683 305.185 303.743 304.039 304.683C303.818 304.927 299.961 307.271 299.338 307.658C291.048 312.804 281.97 319.002 272.849 322.537C268.83 324.095 261.797 325.892 257.372 327.197C243.738 331.105 230.047 334.812 216.304 338.316C208.947 340.154 201.463 341.52 194.135 343.631C192.3 344.16 185.256 347.298 183.867 345.823C179.351 341.028 177.033 334.059 173.76 328.452C166.306 315.68 159.833 303.034 155.733 288.73C153.202 280.188 151.659 275.055 150.971 266.082C150.329 262.952 150.463 254.392 150.958 251.167C151.236 246.167 152.433 236.819 154.35 232.099C156.029 227.963 160.38 217.393 163.892 215.218Z"/><path fill="#DAD9DA" d="M306.302 299.459C307.187 299.72 307.025 299.527 307.477 300.134C307.545 301.683 305.185 303.743 304.039 304.683C304.222 303.892 304.36 303.574 304.236 302.792C302.784 300.868 300.83 302.032 298.096 300.838C299.125 300.796 299.823 300.692 300.825 300.541C299.157 299.729 295.604 300.378 293.471 299.76C297.746 299.594 302.024 299.493 306.302 299.459Z"/><path fill="white" d="M278.202 298C281.338 298.07 284.493 298.305 287.643 298.406C293.085 298.579 300.929 298.58 306.302 299.459C302.024 299.493 297.746 299.594 293.471 299.76C287.491 299.458 284.092 299.007 278.202 298Z"/><path fill="white" d="M163.892 215.218L164.592 215.05C165.939 216.444 165.475 222.746 165.608 224.996C165.725 226.979 166.007 229.685 166.004 231.637C165.287 229.097 165.129 228.027 164.805 225.55C164.529 223.434 164.649 216.666 163.892 215.218Z"/><path fill="white" d="M150.971 266.082C150.329 262.952 150.463 254.392 150.958 251.167C151.324 256.944 151.584 260.261 150.971 266.082Z"/><path d="M141.116 179.285C143.203 178.711 155.888 177.316 156.348 179.608C155.919 180.212 154.805 180.913 154.145 181.125C152.83 181.755 149.05 183.104 148.216 183.772C133.534 195.549 123.576 214.423 122.193 233.201C121.553 239.942 121.749 246.947 122.087 253.706C123.868 282.526 139.661 306.964 152.265 332.089C152.873 333.303 156.475 339.908 156.642 340.721C157.631 342.308 159.655 344.864 157.651 346.298C155.235 346.784 151.445 344.917 149.353 343.752C141.517 340.227 131.037 333.408 124 328.468C117.937 324.152 112.247 319.333 106.993 314.062C103.888 310.961 101.266 307.772 98.3992 304.502L87.3226 292.101C85.2368 289.734 83.275 287.251 81.1325 284.935C75.7817 279.149 70.0632 273.583 64.4536 268.043C61.8105 265.432 58.8667 262.87 56.4607 260.043C55.899 259.383 55.2782 258.601 55.1692 257.717C54.6987 253.903 64.5099 240.04 67.1244 235.892C68.983 232.944 70.5293 229.81 72.5765 226.977C90.9252 201.585 109.127 184.443 141.116 179.285Z"/><path fill="#ACA7AA" d="M120.486 238.837C120.641 236.76 120.364 234.358 122.193 233.201C121.553 239.942 121.749 246.947 122.087 253.706C121.476 253.718 121.493 253.763 120.993 253.43C120.531 252.389 120.548 250.807 120.487 249.627L120.486 238.837Z"/><path fill="#868A88" d="M120.486 238.837L121.06 237.636C121.786 238.627 121.614 248.487 121.098 249.813L120.793 250.009L120.487 249.627L120.486 238.837Z"/><path fill="#DAD9DA" d="M156.642 340.721C157.631 342.308 159.655 344.864 157.651 346.298C155.235 346.784 151.445 344.917 149.353 343.752C153.281 343.254 156.903 347.31 156.642 340.721Z"/><path fill="#282438" d="M141.116 179.285C143.203 178.711 155.888 177.316 156.348 179.608C155.919 180.212 154.805 180.913 154.145 181.125C154.1 180.619 154.063 180.601 153.862 180.126C151.774 179.168 143.682 179.266 141.116 179.285Z"/><path d="M263.976 274.467C258.387 273.848 246.376 270.012 241.362 267.558C228.237 261.137 214.211 251.725 204.799 240.43C203.239 238.558 196.231 228.271 196.229 226.413C197.65 224.287 204.465 229.155 206.487 230.17C208.101 230.996 209.774 231.7 211.493 232.277C219.349 234.864 228.469 236.732 236.705 237.314C240.598 237.421 244.494 236.685 248.343 236.155C290.138 230.41 315.258 192.973 336.98 160.738C338.754 158.105 341.864 151.265 344.481 150.104C345.098 150.133 345.419 150.12 345.851 150.65C347.424 152.578 347.11 174.216 346.934 177.829C346.761 181.384 346.511 185 345.837 188.499C343.534 200.446 339.648 212.079 336.06 223.681C334.287 229.415 332.816 235.249 330.986 240.963C329.171 246.636 326.576 252.076 325.215 257.902C324.509 260.929 321.721 277.345 319.948 278.591C319.351 279.01 318.261 279.033 317.55 279.069C313.217 279.662 306.55 279.657 302.198 279.031C300.161 279.026 296.974 278.67 294.861 278.491C293.263 278.543 290.561 278.226 288.83 278.151C281.25 277.823 271.282 276.549 263.976 274.467Z"/><path fill="#ACA7AA" d="M263.976 274.467C264.767 274.527 265.019 274.473 265.666 274.486C270.11 274.579 275.033 275.674 279.381 276.073C284.126 276.507 288.794 276.288 293.584 276.892C292.691 277.59 290.705 276.56 289.236 276.924L288.874 277.258C290.114 278.228 293.113 277.518 294.861 278.491C293.263 278.543 290.561 278.226 288.83 278.151C281.25 277.823 271.282 276.549 263.976 274.467Z"/><path fill="#4E4B4E" d="M302.198 279.031C305.82 279.072 309.17 278.802 312.772 278.691C314.592 278.635 315.933 279.003 317.55 279.069C313.217 279.662 306.55 279.657 302.198 279.031Z"/></svg>